/* XPM */
static char *bitmark32[] = {
/* columns rows colors chars-per-pixel */
"32 32 125 2 ",
"   c #96BF1A",
".  c #96BF1B",
"X  c #96BF1C",
"o  c #97BF1C",
"O  c #97BF1D",
"+  c #97C01D",
"@  c #97C01E",
"#  c #98C01E",
"$  c #98C01F",
"%  c #98C020",
"&  c #99C020",
"*  c #99C121",
"=  c #99C122",
"-  c #9AC123",
";  c #9AC124",
":  c #9BC226",
">  c #9CC227",
",  c #9CC228",
"<  c #9CC328",
"1  c #9DC32A",
"2  c #9DC32B",
"3  c #9EC32B",
"4  c #9EC42C",
"5  c #9EC42D",
"6  c #9FC42D",
"7  c #9FC42E",
"8  c #A0C530",
"9  c #A1C532",
"0  c #A1C633",
"q  c #A2C634",
"w  c #A4C738",
"e  c #A4C739",
"r  c #A6C83D",
"t  c #A6C93E",
"y  c #A7C93F",
"u  c #A7C940",
"i  c #A7C941",
"p  c #A8CA43",
"a  c #AACB46",
"s  c #ABCC49",
"d  c #ACCC4A",
"f  c #ADCD4D",
"g  c #AFCE50",
"h  c #AFCE51",
"j  c #B0CE52",
"k  c #B0CE53",
"l  c #B0CF53",
"z  c #B1CF55",
"x  c #B1CF56",
"c  c #B3D059",
"v  c #B3D15A",
"b  c #B4D15C",
"n  c #B6D260",
"m  c #B9D466",
"M  c #B9D467",
"N  c #BBD56B",
"B  c #BCD66D",
"V  c #C6DC83",
"C  c #C9DE89",
"Z  c #C9DE8A",
"A  c #CADE8B",
"S  c #CADF8C",
"D  c #CBDF8D",
"F  c #CBDF8E",
"G  c #CBDF8F",
"H  c #CEE194",
"J  c #CFE297",
"K  c #D0E298",
"L  c #D0E299",
"P  c #D1E39B",
"I  c #D2E39C",
"U  c #D2E39D",
"Y  c #D3E49F",
"T  c #D4E5A1",
"R  c #D4E5A2",
"E  c #D7E7A8",
"W  c #D7E7A9",
"Q  c #D8E7AA",
"!  c #D9E8AD",
"~  c #DAE8AF",
"^  c #DAE9AF",
"/  c #DCEAB3",
"(  c #DDEAB5",
")  c #DEEBB6",
"_  c #E0ECBC",
"`  c #E2EDBF",
"'  c #E2EEC1",
"]  c #E3EEC2",
"[  c #E4EEC4",
"{  c #E5EFC6",
"}  c #E7F0CA",
"|  c #E8F1CD",
" . c #E9F2CF",
".. c #E9F2D0",
"X. c #EAF2D1",
"o. c #EBF3D3",
"O. c #EEF4D9",
"+. c #EEF5DA",
"@. c #EFF5DB",
"#. c #F1F7E2",
"$. c #F3F8E4",
"%. c #F4F8E6",
"&. c #F4F8E7",
"*. c #F5F9E8",
"=. c #F5F9E9",
"-. c #F6F9EB",
";. c #F7FAED",
":. c #F7FAEE",
">. c #F7FAEF",
",. c #F8FBF0",
"<. c #FAFCF4",
"1. c #FAFCF5",
"2. c #FBFCF6",
"3. c #FBFDF6",
"4. c #FBFDF7",
"5. c #FCFDF9",
"6. c #FDFEFA",
"7. c #FDFEFB",
"8. c #FDFEFC",
"9. c #FEFEFC",
"0. c #FEFFFD",
"q. c #FEFFFE",
"w. c #FFFFFE",
"e. c gray100",
"r. c None",
/* pixels */
"r.r.r.r.r.r.r.r.r.r.r.r.$ $ $ $ $ $ $ $ r.r.r.r.r.r.r.r.r.r.r.r.",
"r.r.r.r.r.r.r.r.r.& $ $ $ $ $ $ $ $ $ $ $ $ $ r.r.r.r.r.r.r.r.r.",
"r.r.r.r.r.r.r.$ X * & X $ X O O . $ $ $ $ $ * O r.r.r.r.r.r.r.r.",
"r.r.r.r.r.r.$ $ & * O . * 7 u d d r 3 $ O $ O * $ $ r.r.r.r.r.r.",
"r.r.r.r.r.$ $ $ * . 7 m E o.*.,.,.%.o.T b 3 X O $ $ $ r.r.r.r.r.",
"r.r.r.r.$ $ $ @ * m } 7.e.e.e.e.e.e.e.e.4.' b * $ $ $ $ r.r.r.r.",
"r.r.r.$ $ $ @ 6 P 1.e.e.e.7.%.O.O.*.e.e.e.e.,.S > $ $ $ $ r.r.r.",
"r.r.$ $ $ @ 6 ! e.e.e.*.R b r 9 9 u m E ;.e.e.7.U > $ $ $ r.r.r.",
"r.r.$ $ $ * U e.e.e.( s $ . . $ $ O . * x ' e.e.7.C * @ $ $ r.r.",
"r.$ $ $ . N 2.e.7.Y 3 . $ $ $ $ $ $ $ $ . 9 ! e.e.;.x + $ $ $ r.",
"r.$ $ @ 9 | e.e./ 3 $ $ $ $ $ $ $ $ $ $ $ X q [ e.e._ 3 $ $ $ r.",
"r.$ $ X B 7.e.$.a . $ $ $ $ $ $ $ $ $ $ $ $ X x ;.e.1.c . $ $ r.",
"$ $ $ * ! e.e.P $ $ $ $ $ $ $ $ $ $ $ $ $ $ $ * ! e.e.P $ $ $ $ ",
"$ $ $ 9 O.e.1.c . $ $ $ $ $ $ $ $ $ $ $ $ $ $ X N *.*.( > $ $ $ ",
"$ $ X a ;.e.#.w @ $ $ $ $ $ $ $ $ $ $ $ $ $ $ $ : r r e * $ $ $ ",
"$ $ O j 1.e.o.6 $ $ $ $ $ $ $ $ $ $ $ $ $ $ $ $ O X X @ $ $ $ $ ",
"$ $ X j 1.e.o.3 $ $ $ $ $ $ $ $ $ @ . O O O o o o o O O $ $ $ $ ",
"$ $ O a ;.e.#.w @ $ $ $ $ $ $ $ X j D D D S D D D D D C w $ $ $ ",
"$ $ $ 9 O.e.2.b . $ $ $ $ $ $ $ . V e.e.e.e.e.e.e.e.e.2.x o $ $ ",
"$ $ $ * ! e.e.P $ $ $ $ $ $ $ $ . V e.e.e.e.e.e.e.e.e.1.j . $ $ ",
"r.$ $ X B 7.e.#.a . $ $ $ $ $ $ X x P J J J H _ e.e.e.2.x o $ $ ",
"r.$ $ $ 8  .e.e./ 3 @ $ $ $ $ $ $ $ O O o . 9 ' e.e.e.2.x + $ $ ",
"r.$ $ $ O N 1.e.7.Y 3 . $ $ % % $ $ $ $ . 9 ! e.e.e.e.1.j o $ $ ",
"r.r.$ $ $ * P e.e.e.( d @ . @ @ $ X . * j ] e.e.7.e.e.2.x o $ $ ",
"r.r.$ $ $ @ 6 ! e.e.e.%.T b r 9 9 u m Q ;.e.e.7.E O.e.<.x O O $ ",
"r.r.r.$ $ $ @ 6 U <.e.e.e.7.&.O.O.*.7.e.e.e.,.C 9  .e.<.x O $ $ ",
"r.r.r.r.$ $ $ @ : m } 7.e.e.e.e.e.e.e.e.1.' b $ 7 o.e.<.x O $ $ ",
"r.r.r.r.r.$ $ $ O . 7 m E o.*.,.,.%.o.R b 3 o $ 3 [ <.*.j O $ $ ",
"r.r.r.r.r.r.$ $ $ $ $ . * 6 r d s r 6 * O $ $ $ * u d d 3 + $ $ ",
"r.r.r.r.r.r.r.$ $ $ $ $ $ $ $ . X O $ $ $ $ $ $ * O + o $ $ $ $ ",
"r.r.r.r.r.r.r.r.r.$ $ $ $ $ $ $ $ $ $ $ $ $ $ $ $ $ $ $ $ $ $ $ ",
"r.r.r.r.r.r.r.r.r.r.r.r.$ $ $ $ $ $ $ $ $ $ $ $ $ $ $ $ $ $ $ $ "
};
