/* XPM */
static char *bitmark16[] = {
/* columns rows colors chars-per-pixel */
"16 16 82 1 ",
"  c #96BF1B",
". c #96BF1C",
"X c #97BF1C",
"o c #97BF1D",
"O c #97C01D",
"+ c #97C01E",
"@ c #98C01E",
"# c #98C01F",
"$ c #99C121",
"% c #9AC122",
"& c #9AC123",
"* c #9BC224",
"= c #9BC225",
"- c #9BC226",
"; c #9CC328",
": c #9DC32A",
"> c #9EC42D",
", c #9FC42E",
"< c #9FC42F",
"1 c #A0C530",
"2 c #A0C531",
"3 c #A2C635",
"4 c #A2C636",
"5 c #A4C738",
"6 c #A4C739",
"7 c #A6C83D",
"8 c #A6C93E",
"9 c #A6C93F",
"0 c #A7C940",
"q c #A8CA42",
"w c #A8CA43",
"e c #AACB45",
"r c #AACB46",
"t c #ADCD4D",
"y c #B0CF54",
"u c #B2D058",
"i c #B4D15D",
"p c #B5D15D",
"a c #B5D25E",
"s c #B5D25F",
"d c #B6D260",
"f c #B6D361",
"g c #B8D465",
"h c #B9D466",
"j c #C1D977",
"k c #C9DE8A",
"l c #CBDF8E",
"z c #CBDF8F",
"x c #CCE090",
"c c #CEE195",
"v c #CFE297",
"b c #D5E5A3",
"n c #DAE9AF",
"m c #DCEAB3",
"M c #DEEBB7",
"N c #DFECBA",
"B c #E1EDBE",
"V c #E9F1CF",
"C c #EAF2D1",
"Z c #EAF2D2",
"A c #EBF3D3",
"S c #ECF3D6",
"D c #EDF4D7",
"F c #EDF4D8",
"G c #EFF5DD",
"H c #F0F6DE",
"J c #F2F7E2",
"K c #F5F9E9",
"L c #F6F9EB",
"P c #F7FAED",
"I c #F7FAEE",
"U c #F8FBEF",
"Y c #F9FBF1",
"T c #FAFCF3",
"R c #FAFCF4",
"E c #FAFCF5",
"W c #FBFCF5",
"Q c #FBFDF6",
"! c #FDFEFA",
"~ c #FEFFFD",
"^ c #FFFFFE",
"/ c None",
/* pixels */
"/////##oo#O/////",
"///#oo>88>oo$///",
"//#o8vSLLAx5o#//",
"/#oySYBzxBRAto#/",
"/o8DGs$o =hJA5O/",
"##vYs $o#O hYzO#",
"O1DM$$o$###=mN;#",
"oqPk o$o#o  >3$#",
"oqPkoo$O1isssu;#",
"O2FM$$oouPWW!LqO",
"##vYs #o2fdb^Pr#",
"/o8SGs$oO#fH^PeX",
"/#oySYNzxBYAnPeo",
"//#o7vSPPAx3jHqo",
"///#o$>88>oo>0=#",
"/////#oooo$$Oo##"
};
