/* XPM */
static char *gamecredits128[] = {
/* columns rows colors chars-per-pixel */
"128 128 48 1 ",
"  c #97BF1C",
". c #97C01D",
"X c #98C01F",
"o c #9AC123",
"O c #9EC32B",
"+ c #A2C635",
"@ c #A4C739",
"# c #A6C93D",
"$ c #A9CA43",
"% c #ACCC4B",
"& c #AECE50",
"* c #B0CF54",
"= c #B2D057",
"- c #B4D15C",
"; c #B6D361",
": c #B9D466",
"> c #BBD66C",
", c #BED772",
"< c #BFD874",
"1 c #C0D977",
"2 c #C2DA7B",
"3 c #C6DC83",
"4 c #C8DD87",
"5 c #CADE8B",
"6 c #CCE08F",
"7 c #CEE194",
"8 c #D1E39B",
"9 c #D5E5A4",
"0 c #D7E7A9",
"q c #D8E7AA",
"w c #DAE8AE",
"e c #DCEAB3",
"r c #DFEBB9",
"t c #E1EDBF",
"y c #E4EEC4",
"u c #E6EFC8",
"i c #E6F0CA",
"p c #E8F1CD",
"a c #EAF2D2",
"s c #EEF5DB",
"d c #F0F6DE",
"f c #F1F6E1",
"g c #F3F8E6",
"h c #F6FAEC",
"j c #F8FBEF",
"k c #FAFCF3",
"l c #FFFFFF",
"z c None",
/* pixels */
"zzzzzzzzzzzzzzzzzzzzzzzzzzzzzzzzzzzzzzzzzzzzzzzzzzzzzzzXXXXXXXXXXXXXXXXXzzzzzzzzzzzzzzzzzzzzzzzzzzzzzzzzzzzzzzzzzzzzzzzzzzzzzzzz",
"zzzzzzzzzzzzzzzzzzzzzzzzzzzzzzzzzzzzzzzzzzzzzzzzzzXXXXXXXXXXXXXXXXXXXXXXXXXXXzzzzzzzzzzzzzzzzzzzzzzzzzzzzzzzzzzzzzzzzzzzzzzzzzzz",
"zzzzzzzzzzzzzzzzzzzzzzzzzzzzzzzzzzzzzzzzzzzzzzXXXXXXXXXXXXXXXXXXXXXXXXXXXXXXXXXXXzzzzzzzzzzzzzzzzzzzzzzzzzzzzzzzzzzzzzzzzzzzzzzz",
"zzzzzzzzzzzzzzzzzzzzzzzzzzzzzzzzzzzzzzzzzzzXXXXXXXXXXXXXXXXXXXXXXXXXXXXXXXXXXXXXXXXXXzzzzzzzzzzzzzzzzzzzzzzzzzzzzzzzzzzzzzzzzzzz",
"zzzzzzzzzzzzzzzzzzzzzzzzzzzzzzzzzzzzzzzzXXXXXXo.XXXXXXXXXXXXXXXXXXXXXXXXXXXXXXXXXXXXXXXzzzzzzzzzzzzzzzzzzzzzzzzzzzzzzzzzzzzzzzzz",
"zzzzzzzzzzzzzzzzzzzzzzzzzzzzzzzzzzzzzzXXXXXXXXXXXXXXXXXXXXXXXXXXXXXXXXXXXXXXXXXXXXXXXXXXXXzzzzzzzzzzzzzzzzzzzzzzzzzzzzzzzzzzzzzz",
"zzzzzzzzzzzzzzzzzzzzzzzzzzzzzzzzzzzzXXXXXXXXXXXXXXXXXXXXXXXXXXXXXXXXXXXXXXXXXXXXo.XXXXXXXXXXzzzzzzzzzzzzzzzzzzzzzzzzzzzzzzzzzzzz",
"zzzzzzzzzzzzzzzzzzzzzzzzzzzzzzzzzzXXXXXXXXXXXXXXXXXXXXXXXXXXXXXXXXXXXXXXXXXXXXXXXXXXXXXXXXXXXXzzzzzzzzzzzzzzzzzzzzzzzzzzzzzzzzzz",
"zzzzzzzzzzzzzzzzzzzzzzzzzzzzzzzzXXXXXXXXXXXXXXXXXXXXXXXXXXXXXXXXXXXXXXXXXXXXXXXXXXXXXXXXXXXXXXXzzzzzzzzzzzzzzzzzzzzzzzzzzzzzzzzz",
"zzzzzzzzzzzzzzzzzzzzzzzzzzzzzzXXXXXXXXXXXXXXXXXXXXXXXXXXXXXXXXXXXXXXXXXXXXXXXXXXXXXXXXXXXXXXXXXXXzzzzzzzzzzzzzzzzzzzzzzzzzzzzzzz",
"zzzzzzzzzzzzzzzzzzzzzzzzzzzzXXXXXXXXXXXXXXXXXXXXXXXXXXXXXXXXXXXXXXXXXXXXXXXXXXXXXXXXXXXXXXXXXXXXXXXzzzzzzzzzzzzzzzzzzzzzzzzzzzzz",
"zzzzzzzzzzzzzzzzzzzzzzzzzzzXXXXXXXXXXXXXXXXXXXXXXXXXXXXXXXXXXXXXXXXXXXXXXXXXXXXXXXXXXXXXXXXXXXXXXXXXzzzzzzzzzzzzzzzzzzzzzzzzzzzz",
"zzzzzzzzzzzzzzzzzzzzzzzzzzXXXXXXXXXXXXXXXXXXXXXXXXXXXXXXXXXXXXXXXXXX XXXXXXXXXXXXXXXXXXXXXXXXXXXXXXXXXzzzzzzzzzzzzzzzzzzzzzzzzzz",
"zzzzzzzzzzzzzzzzzzzzzzzzXXXXXXXXXXXXXXXXXXXXXXXXXXX.XXXXXXX.XXXoXXXXo XXXXXXXXXXXXXXXXXXXXXXXXXXXXXXXXXzzzzzzzzzzzzzzzzzzzzzzzzz",
"zzzzzzzzzzzzzzzzzzzzzzzXXXXXXXXXXXXXXXXXXXXXXXXXXXXoX.X .    .   X      XXXXXXXXXXXXXXXXXXXXo XXXXXXXXXXzzzzzzzzzzzzzzzzzzzzzzzz",
"zzzzzzzzzzzzzzzzzzzzzzXXXXXXXXXXXXXXXXXXXXXXXXXXXXX.  XO@%-,24576531:=$+o   XXXXXXXXXXXXXXXXXXXXXXXXXXXXXzzzzzzzzzzzzzzzzzzzzzzz",
"zzzzzzzzzzzzzzzzzzzzzXXXXXXXXXXXXXXXXXXXXXXXXXXX .o+-39ighlllllllllllkhat8,$O....oXXXXXXXXXXXXXXXXXXXXXXXXzzzzzzzzzzzzzzzzzzzzzz",
"zzzzzzzzzzzzzzzzzzzzXXXXXXXXXXXXXXXXXXXXXXXXX. o$1edkllllllllllllllllllllllhp8-+. XXXXXXXXXXXXXXXXXXXXXXXXXXzzzzzzzzzzzzzzzzzzzz",
"zzzzzzzzzzzzzzzzzzzXXXXXXXXXXXXXXXXXXXXXXXX X@<rhlllllllllllllllllllllllllllllks8=O .XXXXXXXXXXXXXXXXXXXXXXXXzzzzzzzzzzzzzzzzzzz",
"zzzzzzzzzzzzzzzzzzXXXXXXXXXXXXXXXXXXXXXXX o%7dlllllllllllllllllllllllllllllllllllky,+ .XXXXXXXXXXXXXXXXXXXXXXXzzzzzzzzzzzzzzzzzz",
"zzzzzzzzzzzzzzzzzXXXXXXXXXXXXXo.XXXXXXX X%9hlllllllllllllllllllllllllllllllllllllllka1+  o XXXXXXXXXXXXXXXXXXXXzzzzzzzzzzzzzzzzz",
"zzzzzzzzzzzzzzzzXXXXXXXXXXXXXXXXXXXXX..#8hllllllllllllllllllllllllllllllllllllllllllllp1O XXXXXXXXXXXXXXXXXXXXXzzzzzzzzzzzzzzzzz",
"zzzzzzzzzzzzzzzXXXXXXXXXXXXXXXXXXXXX O2gllllllllllllllllllllllllllllllllllllllllllllllllt=  XXXXXXXXXXXXXXXXXXXXzzzzzzzzzzzzzzzz",
"zzzzzzzzzzzzzzXXXXXXXXXXXXXXXXXXXXX.=ylllllllllllllllllllllllllllllllllllllllllllllllllllh6+ XXXXXXXXXXXXXXXXXXXXzzzzzzzzzzzzzzz",
"zzzzzzzzzzzzzXXXXXXXXXXXXXXXXXXXo O3hlllllllllllllllllllllllllllllllllllllllllllllllllllllly&XXoXXXXXXXXXXXXXXXXXXzzzzzzzzzzzzzz",
"zzzzzzzzzzzzzXXXXXXXXXXXXXXXXXXX #wlllllllllllllllllllllllllllllllllllllllllllllllllllllllllh1o.XXXXXXXX.oXXXXXXXXXzzzzzzzzzzzzz",
"zzzzzzzzzzzzXXXXXXXXXXXXXXXXXXX &plllllllllllllllllllllllllllllllllllllllllllllllllllllllllllk8O o.XXXXXXXXXXXXXXXXXzzzzzzzzzzzz",
"zzzzzzzzzzzXXXXXXXXXXXXXXXXXXXX:gllllllllllllllllllllllllkgayrwq0etishllllllllllllllllllllllllle@ .XXXXXXXXXXXXXXXXXzzzzzzzzzzzz",
"zzzzzzzzzzXXXXXXXXXXXXXXXXXXXo,hlllllllllllllllllllllhp9<=#OoooX ooO+$;4edlllllllllllllllllllllly# XXXXXXXXXXXXXXXXXXzzzzzzzzzzz",
"zzzzzzzzzzXXXXXXXXXXXXXXXXXXX1jllllllllllllllllllljt3%O     oX XXXo     o+;8sklllllllllllllllllllu$ XXXXXXXXXXXXXXXXXXzzzzzzzzzz",
"zzzzzzzzzXXXXXXXXXXXXXXXXXo.<jllllllllllllllllllg7%O   XXXXX..XXXXXXo XX.. .+>rkllllllllllllllllllu# oXXXXXXXXXXXXXXXXzzzzzzzzzz",
"zzzzzzzzzXXXXXXXXXXXXXXXXX >hlllllllllllllllllg5#  XXXXXXXXX.oXXXXXX oXXXX.o  o-eklllllllllllllllllt+ XXXXXXXXXXXXXXXXXzzzzzzzzz",
"zzzzzzzzXXXXXXXXXXXXXXXXX =gllllllllllllllllh8#  o  o XXXXXXXXXXXXXXXXXXXXXXXXXXo;ylllllllllllllllllwOXoXXXXXXXXXXXXXXXzzzzzzzzz",
"zzzzzzzzXXXXXXXXXXXX.oXX $alllllllllllllllly=X oXX.oo.XXXXXXXXXXXXXXXXXXXXXXXXXXo O4gllllllllllllllll6o XXXXXXXXXXXXXXXXzzzzzzzz",
"zzzzzzzXXXXXXXXXXXXXXXX.Orlllllllllllllllj6+ o oXXXX XXXXXXXXXXXXXXXXXXXXXXXXXXXXX.X&ulllllllllllllllj, XXXXXXXXXXXXXXXXXzzzzzzz",
"zzzzzzzXXXXXXXXXXXXXXXXX6lllllllllllllllg:o   o XXXXXXXXXXXXXXXXXXXXXXXXXXXXXXXXXXXX +8lllllllllllllllg%.XXXXXXXXXXXXXXXXzzzzzzz",
"zzzzzzXXXXXXXXXXXXXX o -jllllllllllllllp% XXXXXXXXXXXXXXXXXXXXo XXXXXXXXXXXXXXXXXXXXX o4jlllllllllllllltOXXXXXXXXXXXXXXXXXzzzzzz",
"zzzzzzXXXXXXXXXXXXXXo.+plllllllllllllly$ XXXXXXXXXXXXXXXXXXXXX. XXXXXXXXXXXXXXXXXXXXXXXo1hllllllllllllll3.XXXXXXXXXXXXXXXXzzzzzz",
"zzzzzXXXXXXXXXXXXXXX X6lllllllllllllly# oXXXXXXXXXXXXXXXXXXXXXXoXXXXXXXXXXXXXXXXXXXXXXXXX,hlllllllllllllg% XXXXXXXXXXXXXXXXzzzzz",
"zzzzzXXXXXXXXXXXXXXXX%hlllllllllllllp# oXXXXXXXXXXXXXXXXXXXXXXXXXXXXXXXXXXXXXXXXXXXXXXXXXo1klllllllllllllwoXXXXXXXXXXXXXXXXzzzzz",
"zzzzXXXXXXXXXXXXXXXXoellllllllllllld% XXXXXXXXXXXXXXXXXXXXXXXXXXXXXXXXXXXXXXXXXXXXXXXXXXXXo5lllllllllllllk; XXXXXXXXXXXXXXXzzzzz",
"zzzzXXXXXXXXXXoXXXX -kllllllllllllh; XXXXXXXXXXXXXXXXXXXXXXXXXXXXXXXXXXXXXXXXXXXXXXXXXXXXX.o0lllllllllllllyOXXXXXXXXXXXXXXXXzzzz",
"zzzzXXXXXXXXXX.XXXXotlllllllllllll4XXXXXXXXXXXXXXXXXXXXXXXXXXXXXXXXXXXXXXXXXXXXXXXXXXXXXXXo +pllllllllllllk> XXXXXXXXXXXXXXXzzzz",
"zzzXXXXXXXXXXXXXXX -jllllllllllllrO.XXXXXXXXXXXXXXXXXXXXXXXXXXXXXXXXXXXXXXXXXXXXXXXXXXXXXX.X -jllllllllllllyOXXXXXXXXXXXXXXXXzzz",
"zzzXXXXXXXXXXXXXXXowllllllllllllg% oXXXXXXXXXXXXXXXXX XXXXXXXXXXXXXXXXXXXXXXXXXXXXXXXXXXXXXXXX7llllllllllllk- XXXXXXXXXXXXXXXzzz",
"zzzXXXXXXXXXXXXXX %hllllllllllll4 XXXXXXXXXXXXXXXXXXXoXXXXXXXXXXXXXXXXXXXXXXXXXXXXXXXXXXXXXXXX+allllllllllllwoXXXXXXXXXXXXXXXzzz",
"zzXXXXXXXXXXXXXXX 5lllllllllllla+.XXXXXXXXXXXXXXXXXXXXXXXXXXXXX XXXXXXXXXXXXXXXXXXXXXXXXXXXXXX ,llllllllllllg$  XXXXXXXXXXXXXzzz",
"zzXXXXXXXXXXXXXXoOallllllllllll1 XXXXXXXXXXXXXXXXXXXXXXXXXXXXXXoXXXXXXXXXXXXXXXXXXXXXXXXXXXXXXXOyllllllllllll3 oXXXXXXXXXXXXXXzz",
"zzXXXXXXXXXXXXXX -klllllllllllp+ XXXXXXXXXXXXXXXXXXXXXXXXXXXXX .XXXXXXXXXXXXXXXXXXXXXXXXXXXXXXX >llllllllllllyOXXXXXXXXXXXXXXXzz",
"zzXXXXXXXXXXXXXXX7llllllllllll3 XXXXXXXXXXXXXXXXXXXXXXXXXXXXXXoXXXXXXXXXXXXXXXXXXXXXXXXXXXXXXXX.Oplllllllllllh$ XXXXXXXXXXXXXXzz",
"zXXXXXXXXXXXXXXXOplllllllllllg# XXXXXXXXXXXXoXXXXXXXXXXXXXXXXXXXXXXXXXXXXXXXXXXXXXXXXXXXXXXXXXXX 3llllllllllll2 XXXXXXXXXXXXXXXz",
"zXXXXXXXXXXXXXX %jlllllllllll9o.XXXXXXXXXXXX..XXXXXXXXXXXXXXXXXXXXXXXXXXXXXXXXXXXXXXXXXXXXXXXXXXX$hllllllllllleoXXXXXXXXXXXXXXXz",
"zXXXXXXXXXXXXXX 1lllllllllllk: XXXXXXXXXXXXXXXXXXXXXXXXXXXXXXXXXXXXXXXXXXXXXXXXXXXXXXXXXXXXXXXXXXoellllllllllls+.oXXXXXXXXXXXXXz",
"zXXXXXXXXXXXXXXX9llllllllllld+.XXXXXXXXXXXXXXXXXXXXXXXXXXXXXXXXXXXXXXXXXXXXXXXXXXXXXXXXXXXXXXXXXX 2lllllllllllk& .XXXXXXXXXXXXXz",
"zXXXXXXXXXXXXX OillllllllllleoXXXXXXXXXXXXXXXXXXXXXXXXXXXXXXXXXXXXXXXXXXXXXXXXXXXXXXXXXXXXXXXXXXX %hlllllllllll1 XXXXXXXXXXXXXXz",
"XXXXXXXXXXXXXX #glllllllllll2.XXXXXXXXXXXXXXXXXXXXXXXXXXXXXXXXXXXXXXXXXXXXXXXXXXXXXXXXXXo XXXXXXXoOykjjjjjjjjjk7..XXXXXXXXXXXXXz",
"XXXXXXXXXXo.XX &kllllllllllk* XXXXXXXXXXXXXXXXXXXXXXXXXXXXXXXXXXXXXXXXXXXXXXXXXXXXXXXXXXXXXXXXXXXXo#%%%%%%%%%%%#XXXXXXXXXXXXXXXX",
"XXXXXXXXXXXXXX >lllllllllllg#.XXXXXXXXXXXXXXXXXXXXXXXXXXXXXXXXXXXXXXXXXXXXXXXXXXXXXXXXXXXXXXXXXXXXX .           XXXXXXXXXXXXXXXX",
"XXXXXXXXXXXXXX 3lllllllllllpO.XXXXXXXXXXXXXXXXXXXXXXXXXXXXXXXXXXXXXXXXXXXXXXXXXXXXXXXXXXXXXXXXXXXXXXXX XXXXX XXXXXXXXXXXXXXXXXXX",
"XXXXXXXXXXXX o 7llllllllllleoXXXXXXXXXXXXXXXXXXXXXXXXXX XXXXXXXXXXXXXXXXXXXXXXXXXXXXXXXXXXXXXXXXXXXXXXXXXXXX XXXXX.oXXXXXXXXXXXX",
"XXXXXXXXXXXXXX 0lllllllllll8oXXXXXo .oXXXXXXXXXXXXXXXXXoXXXXXXXXXXXXXXXXXXXXXXXXXXXXXXXXXXXXXXXXXXXXXXXXXXXXXXXXXXXXXXXXXXXXXXXX",
"XXXXXXXXXXXXXXoelllllllllll6 XXXXXXXX XXXXXXXX oXXXXXXXXXXXXXXXXXXXXXXXXXXXXXXXXXXXXXXXXXXXXXXXXXXXXXXXXXXXXXXXXXXXXXXXXXXXXXXXX",
"XXXXXXXXXXXXXXorlllllllllll4 .XXXXXXXXXXXXXXXXX.XXXXXXXXXXXXXXXXXXXXXXXXXXXXXXXXXXXXXXXXXXXXXXXXXXXXXXXXXXXXXXXXXXXXXXXXXXXXXXXX",
"XXXXXXXXXXXXXXotlllllllllll2 .XXXXXXXXXXXXXXXXo XXXXXXXXXXXXXXXXXXXXXXXXXXXXXXXXXXXXXXXXXXXXXXXXXXXXXXXXXXXXXXXXXXXXXXXXXXXXXXXX",
"XXXXXXXXXXXXXXXtlllllllllll3 XXXXXXXXXXXXXXXXXXXXXXXXXXXXXXXXXXXXXXXXXXXXXXXXXXXXXXXXXXXXXXXXXXXXXXXXXXXXXXXXXXXXXXXXXXXXXXXXXXX",
"XXXXXXXXXXXXXXotlllllllllll3 XXXXXXXXXXXXXXXXXXXXXXXXXXXXXXXXXXXXXXXXXXXXXXXXXXXXXXXXXXXXXXXXXXXXXXXXXXXXXXXXXXXXXXXXXXXXXXXXXXX",
"XXXXXXXXXXXXXXoelllllllllll6 .XXXXXXXXXXXXXXXXXXXXXXXXXXXXXXXXXXXXXXXXXXXXXXXXXXXXX.XXXXXXXXXXXXXXXXXXXXXXXXXXXXXXXXXXXXXXXXXXXX",
"XXXXXXXXXXXXXXX0lllllllllll8.XXXXXXXXXXXXXXXXXXXXXXXXXXXXXXXXXXXXXXXXXXXXXXXXXXXXXXoXXXXXXXXXXXXXXXXXXXXXXXXXXXXXXXXXXXXXXXXXXXX",
"XXXXXXXXXXXXXX 7llllllllllleo..XXXXXXXXXXXXXXXXXXXXXXXXXXXXXXXXXXXXXXXo.... ....  ..... ..  ..  ..  .... .....  .XXXXXXXXXXXXXXX",
"XXXXXXXXXXXXXX 3lllllllllllpO..XXXXXXXXXXXXXXXXXXXXXXXXXXXXXXXXXXXXXXXO+++++++@@++@+@++++++++++++@@++@+++++@++++OoXXXXXXXXXXXXXX",
"XXXXXXXXXXXXXX >lllllllllllg#.XXXXXXXXXXXXXXXXXXXXXXXXXXXXXXXXXXXXXXXoqggddgdddggdddgdgdgddggddggdddgdgdgddddggg0o.XXXXXXXXXXXXX",
"XXXXXXXXXXXXXX &kllllllllllk= XXXXXXXXXXXXXXXXXXXXXXXXXXXXXXXXXXXXXXXotlllllllllllllllllllllllllllllllllllllllllyoXXXXXXXXXXXXXX",
"XXXXXXXXXXXXXXX#glllllllllll2 XXXXXXXXXXXXXXXXXXXXXXXXXXXXXXXXXXXXo..otlllllllllllllllllllllllllllllllllllllllllyoXXXXXXXXXXXXXX",
"zXXXXXXXXXXXXXXoyllllllllllleoXXXXXXXXXXXXXXXXXXXXXXXXXXXXXXXXXXXX  ootlllllllllllllllllllllllllllllllllllllllllroXXXXXXXXXXXXXX",
"zXXXXXXXXXXXXXXX9llllllllllld@.XXXXXXXXXXXXXXXXXXXXXXXXXXXXXXXXXXX o otlllllllllllllllllllllllllllllllllllllllllyoXXXXXXXXXXXXXX",
"zXXXXXXXXXXXXXX 1lllllllllllk: .XXXXXXXXXXXXXXXXXXXXXXXXXXXXXXXXXXo ootlllllllllllllllllllllllllllllllllllllllllroXXXXXXXXXXXXXX",
"zXXXXXXXXXXXXXX.%jlllllllllll9o XXXXXXXXXXXXXXXXXXXXXXXXXXXXXXXXXXXX oylllllllllllllllllllllllllllllllllllllllllyoXXXXXXXXXXXXXX",
"zXXXXXXXXXXXXXXXOplllllllllllg# XXXXXXXXXXXXXXXXXXXXXXXXXXXXXXXXXXXXootllllllllllllllllllllllllllllllllllllllllltoXXXXXXXXXXo XX",
"zzXXXXXXXXXXXXXXX7llllllllllll3 XXXXXXXXXXXXXXXXXXXXXXXXXXXXXXXXXXXX.otlllllllllllllllllllllllllllllllllllllllllyoXXXXXXXXXXXXXX",
"zzXXXXXXXXXXXXXXX-klllllllllllp+XXXXXXXXXXXXXXXXXXXXXXXXXXXXXXXXXXXXootllllllllllllllllllllllllllllllllllllllllltoXXXXXXXXXXXXXX",
"zzXXXXXXXXXXXXXXXOallllllllllll1 XXXXXXXXXXXXXXXXXXXXXXXXXXXXXXXXXXXXoyllllllllllllllllllllllllllllllllllllllllltoXXXXXXXXXXXXXX",
"zzXXXXXXXXXXXXXXX 5lllllllllllla@ XXXXXXXXXXXXXXXXXXXXXXXXXXXXXXXXXXXorkkkkkkkkkkjkkjkkjkkkkkkjllllllllllllllllltoXXXXXXXXXXXXXX",
"zzzXXXXXXXXXXXXXX %jllllllllllll5XXXXXXXXXXXXXXXXXXXXXXXXXXXXXXXXXXXXX$========*&&&&&&&&&%&%&=,hlllllllllllllllltoXXXXXXXXXXXXXX",
"zzzXXXXXXXXXXXXXXXowllllllllllllg% XXXXXXXXXXXXXXXXXXXXXXXXXXXXXXXXXXXX                   X   5llllllllllllllllltoXXXXXXXXXXXXXX",
"zzzXXXXXXXXXXXXXXX -kllllllllllllrOXXXXXXXXXXXXXXXXXXXXXXXXXXXXXXXXXXXXXXXXXXXXXXXXXXXXXXXXX -hllllllllllllllllltoXXXXXXXXXXXXXX",
"zzzzXXXXXXXXXXXXXXXorlllllllllllll4 XXXXXXXXXXXXXXXXXXXXXXXXXXXXXXXXXXXXXXXXXXXXXXXXXXXXXXX @pllllllllllllllllllyoXXXXXXXXXXXXXX",
"zzzzXXXXXXXXXXXXXXX -kllllllllllllh; XXXXXXXXXXXXXXXXXXXXXXXXXXXXXXXXXXXXXXXXXXXXXXXXXXXXX.OqllllllllllllllllllltoXXXXXXXXXXXXXX",
"zzzzXXXXXXXXXXXXXXXooellllllllllllld% XXXXXXXXXXXXXXXXXXXXXXXXXXXXXXXXXXXXXXXXXXXXXXXXXXX.o4lllllllllllllllllllltoXXXXXXXXXXXXXX",
"zzzzzXXXXXXXXXXXXXXX %hllllllllllllli$ .XXXXXXXXXXXXXXXXXXXXXXXXXXXXXXXXXXXXXXXXXXXXXXXXXX1klllllllllllllllllllltoXXXXXXXXXXXXXX",
"zzzzzXXXXXXXXoXXXXXXXo6lllllllllllllly# XXXXXXXXXXXXXXXXXXXXXXXXXXXXXXXXXXXXXXXXXXXXXXXXX,jllllllllllllllllllllltoXXXXXXXXXXXXXX",
"zzzzzzXXXXXXXXXXXXXXX.+plllllllllllllly$ XXXXXXXXXXXXXXXXXXXXXXXXXXXXXXXXXXXXXXXXXXXXXXo1hlllllllllllllllllllllltoXXXXXXXXXXXXXX",
"zzzzzzXXXXXXXXXXXXXXXX -jllllllllllllllp& XXXXXXXXXXXXXXXXXXXXXXXXXXXXXXXXXXXXXXXXXXo o4klllllllllllllllllllllllyoXXXXXXXXXXXXXX",
"zzzzzzzXXXXXXXXXXXXXXX o6lllllllllllllllf>XXXXXXXXXXXXXXXXXXXXXXXXXXXXXXXXXXXXXXXXo  +9klllllllllllllllllllllllltoXXXXXXXXXXXXXX",
"zzzzzzzXXXXXXXXXXXXXXXX.Orlllllllllllllllj7O XXXXXXXXXXXXXXXXXXXXXXXXXXXXXXXXXXXXXX &ylllllllllllllllllllllllllltoXXXXXXXXXXXXXX",
"zzzzzzzzXXXXXXXXXXXXXXXX $alllllllllllllllly=  Xo XXXXXXXXXXXXXXXXXXXXXXXXXXXXXXX O4hlllllllllllllllllllllllllllyoXXXXXXXXXXXXXX",
"zzzzzzzzXXXXXXXXXXXXXXXXX =gllllllllllllllllj8$  XXXXXXXXXXXXXXXXXXXXXXXXXXXXXX o:ullllllllllllllllljllllllllllltoXXXXXXXoXXXXXX",
"zzzzzzzzzXXXXXXXXXXXXXXXXX >hlllllllllllllllllg4#. XoXXXXXXXXXXXXXXXXXXXXXXX. o-eklllllllllllllllllt8llllllllllltooXXXXXXXXXXXXX",
"zzzzzzzzzXXXXXXXXXXXXXXXXXXX<jllllllllllllllllllg8&o  XXXXXXXXXXXXXXXXX.X.  +,tklllllllllllllllllly+2llllllllllltoXXXXXXXXXXXXXX",
"zzzzzzzzzzXXXXXXXXXXXXXXXXXXX1jlllllllllllllllllllht3%O    oXo.XXXo .   o+-8alllllllllllllllllllli$ 3llllllllllltoXXXXXXXXXXXXXX",
"zzzzzzzzzzzXXXXXXXXXXXXXXXXX.o<hllllllllllllllllllllljp8<=#Oooo  ooO+$;3edlllllllllllllllllllllly#  3lllllllllllyoXXXXXXXXXXXXXX",
"zzzzzzzzzzzXXXXXXXXXXXXXXXXXoXX:gllllllllllllllllllllllllkgauew9qetudhllllllllllllllllllllllllle@ . 3lllllllllllroXXXXXXXXXXXXXX",
"zzzzzzzzzzzzXXXXXXXXXXXXXXXX.XX &pllllllllllllllllllllllllllllllllllllllllllllllllllllllllllll8O .. 3lllllllllllyoXXXXXXXXXXXXXX",
"zzzzzzzzzzzzzXXXXXXXXXXXXXXXXXXXX#wlllllllllllllllllllllllllllllllllllllllllllllllllllllllllg<o o X 3lllllllllllroXXXXXXXXXXXXXX",
"zzzzzzzzzzzzzzXXXXXXXXXXXXXXXXXXXXo3hlllllllllllllllllllllllllllllllllllllllllllllllllllllly&.XXXXX 3lllllllllllyoXXXXXXXXXXXXXX",
"zzzzzzzzzzzzzzXXXXXXXXXXXXXXXXXXXXXX&ylllllllllllllllllllllllllllllllllllllllllllllllllllh6+ XXXXXX 3lllllllllllyoXXXXXXXXXXXXXX",
"zzzzzzzzzzzzzzzXXXXXXXXXXXXXXXXXXXXX O2glllllllllllllllllllllllllllllllllllllllllllllllkt=XXXXXXXX. 3llllllllllltoXXXXXXXXXXXXXX",
"zzzzzzzzzzzzzzzzXXXXXXXXXXXXXXXXXXXXXXX$8hlllllllllllllllllllllllllllllllllllllllllllla<O XXXXXXXX. 3llllllllllltoXXXXXXXXXXXXXX",
"zzzzzzzzzzzzzzzzzXXXXXXXXXXXXXXXXXXXXXX o&9hlllllllllllllllllllllllllllllllllllllllla2+ XXXXXXXXXX. 3llllllllllltoXXXXXXXXXXXXXX",
"zzzzzzzzzzzzzzzzzzXXXXXXXXXXXXXXXXXXXXXXX o%8slllllllllllllllllllllllllllllllllllky<+ .XXXXXXXXXXX. 3llllllllllltoXXXXXXXXXXXXXX",
"zzzzzzzzzzzzzzzzzzzXXXXXXXXXXXXXXXXXXXXXXXX X@,rhlllllllllllllllllllllllllllllks8=O   XXXXXXXXXXXX. 3llllllllllltoXXXXXXXXXXXXXX",
"zzzzzzzzzzzzzzzzzzzzXXXXXXXXXXXXXXXXXXXXXXXXX. o$1edkllllllllllllllllllllllhp8-+X XXXXXXXXXXXXXXXXX 3lllllllllllyoXXXXXXXXXXXXXX",
"zzzzzzzzzzzzzzzzzzzzzXXXXXXXXXXXXXXXXXXXXXXXXXXX  o+-3qighlllllllllllkhst7,%O. .XXXXXXXXXXXXXXXXXXX 3llllllllllltoXXXXXXXXXXXXXX",
"zzzzzzzzzzzzzzzzzzzzzzXXXXXXXXXXXXXXXXXXXXXXXXXXXXX.  .O@%->34676541:=$OoX  .XXXXXXXXXXXXXXXXXXXXXX &87777777778<oXXXXXXXXXXXXXX",
"zzzzzzzzzzzzzzzzzzzzzzzXXXXXXXXXXXXXXXXXXXoXXXXXXXXXXXXX.                oXXXXXXXXXXXXXXXXXXXXXXXXXXX   X        XXXXXXXXXXXXXXX",
"zzzzzzzzzzzzzzzzzzzzzzzzzXXXXXXXXXXXXXXXXX.XXXXXXXXXXXXXXX o..XXXXoXXXXXoXXXXXXXXXXXXXXXXXXXXXXXXXXXXXXXXXXXXXXXXXXXXXXXXXXXXXXX",
"zzzzzzzzzzzzzzzzzzzzzzzzzzXXXXXXXXXXXXXXXXXXXXXXXXXXXXXXXXo. oXXXXXXXXXX.XXXXXXXXXXXXXXXXXXXXXXXXXXXXXXXXXXXXXXXXXXXXXXXXXXXXXXX",
"zzzzzzzzzzzzzzzzzzzzzzzzzzzXXXXXXXXXXXXXXXXXXXXXXXXXXXXXXXXXXXXXXXXXXXXXXXXXXXXXXXXXXXXXXXXXXXXXXXXXXXXXXXXXXXXXXXXXXXXXXXXXXXXX",
"zzzzzzzzzzzzzzzzzzzzzzzzzzzzzXXXXXXXXXXXXXXXXXXXXXXXXXXXXXXXXXXXXXXXXXXXXXXXXXXXXXXXXXXXXXXXXXXXXXXXXXXXXXXXXXXXXXXXXXXXXXXXXXXX",
"zzzzzzzzzzzzzzzzzzzzzzzzzzzzzzXXXXXXXXXXXXXXXXXXXXXXXXXXXXXXXXXXXXXXXXXXXXXXXXXXXXXXXXXXXXXXXXXXXXXXXXXXXXXXXXXXXXXXXXXXXXXXXXXX",
"zzzzzzzzzzzzzzzzzzzzzzzzzzzzzzzzXXXXXXXXXXXXXXXXXXXXXXXXXXXXXXXXXXXXXXXXXXXXXXXXXXXXXXXXXXXXXXXXXXXXXXXXXXXXXXXXXXXXXXXXXXXXXXXX",
"zzzzzzzzzzzzzzzzzzzzzzzzzzzzzzzzzzXXXXXXXXXXXXXXXXXXXXXXXXXXXXXXXXXXXXXXXXXXXXXXXXXXXXXXXXXXXXXXXXXXXXXXXXXXXXXXXXXXXXXXXXXXXXXX",
"zzzzzzzzzzzzzzzzzzzzzzzzzzzzzzzzzzzzXXXXXXXXXXXXXXXXXXXXXXXXXXXXXXXXXXXXXXXXXXXXXXXXXXXXXXXXXXXXXXXXXXXXXXXXXXXXXXXXXXXXXXXXXXXX",
"zzzzzzzzzzzzzzzzzzzzzzzzzzzzzzzzzzzzzzXXXXXXXXXXXXXXXXXXXXXXXXXXXXXXXX XXXXXXXXXXXXXXXXXXXXXXXXXXXXXXXXXXXXXXXXXXXXXXXXXXXXXXXXX",
"zzzzzzzzzzzzzzzzzzzzzzzzzzzzzzzzzzzzzzzzXXXXXXXXXXXXXXXXXXXXXXXXXXXXXXoXXXXXXXXXXXXXXXXXXXXXXXXXXXXXXXXXXXXXXXXXXXXXXXXXXXXXXXXX",
"zzzzzzzzzzzzzzzzzzzzzzzzzzzzzzzzzzzzzzzzzzzXXXXXXXXXXXXXXXXXXXXXXXXXXXXXXXXXXXXXXXXXXXXXXXXXXXXXXXXXXXXXXXXXXXXXXXXXXXXXXXXXXXXX",
"zzzzzzzzzzzzzzzzzzzzzzzzzzzzzzzzzzzzzzzzzzzzzzXXXXXXXXXXXXXXXXXXXXXXXXXXXXXXXXXXXXXXXXXXXXXXXXXXXXXXXXXXXXXXXXXXXXXXXXXXXXXXXXXX",
"zzzzzzzzzzzzzzzzzzzzzzzzzzzzzzzzzzzzzzzzzzzzzzzzzzXXXXXXXXXXXXXXXXXXXXXXXXXXXXXXXXXXXXXXXXXXXXXXXXXXXXXXXXXXXXXXXXXXXXXXXXXXXXXX",
"zzzzzzzzzzzzzzzzzzzzzzzzzzzzzzzzzzzzzzzzzzzzzzzzzzzzzzzXXXXXXXXXXXXXXXXXXXXXXXXXXXXXXXXXXXXXXXXXXXXXXXXXXXXXXXXXXXXXXXXXXXXXXXXX"
};
