/* XPM */
static char *gamecredits64[] = {
/* columns rows colors chars-per-pixel */
"64 64 195 2 ",
"   c #96BF1A",
".  c #96BF1B",
"X  c #96BF1C",
"o  c #97BF1C",
"O  c #97BF1D",
"+  c #97C01D",
"@  c #97C01E",
"#  c #98C01E",
"$  c #98C01F",
"%  c #98C020",
"&  c #99C020",
"*  c #99C021",
"=  c #99C121",
"-  c #99C122",
";  c #9AC122",
":  c #9AC123",
">  c #9AC124",
",  c #9BC225",
"<  c #9BC226",
"1  c #9CC227",
"2  c #9CC328",
"3  c #9DC329",
"4  c #9EC32B",
"5  c #9EC42C",
"6  c #9EC42D",
"7  c #9FC42E",
"8  c #9FC42F",
"9  c #9FC52F",
"0  c #A0C530",
"q  c #A0C531",
"w  c #A1C532",
"e  c #A1C633",
"r  c #A2C634",
"t  c #A2C635",
"y  c #A2C636",
"u  c #A3C636",
"i  c #A3C738",
"p  c #A4C738",
"a  c #A4C739",
"s  c #A4C73A",
"d  c #A4C83A",
"f  c #A5C83B",
"g  c #A5C83C",
"h  c #A6C83D",
"j  c #A6C93D",
"k  c #A6C93E",
"l  c #A7C93F",
"z  c #A7C940",
"x  c #A7C941",
"c  c #A8CA41",
"v  c #A8CA42",
"b  c #A9CA43",
"n  c #A9CA44",
"m  c #A9CB44",
"M  c #AACB46",
"N  c #AACB47",
"B  c #ABCB47",
"V  c #ABCB48",
"C  c #ABCC49",
"Z  c #ACCC4A",
"A  c #ACCC4B",
"S  c #ADCD4C",
"D  c #ADCD4D",
"F  c #AECD4E",
"G  c #B0CF54",
"H  c #B1D056",
"J  c #B2D058",
"K  c #B3D15A",
"L  c #B4D15C",
"P  c #B5D25E",
"I  c #B6D260",
"U  c #B6D261",
"Y  c #B7D362",
"T  c #B7D363",
"R  c #B8D364",
"E  c #B9D466",
"W  c #B9D467",
"Q  c #B9D468",
"!  c #BAD569",
"~  c #BBD56B",
"^  c #BCD66C",
"/  c #BCD66D",
"(  c #BDD76F",
")  c #BED772",
"_  c #BFD873",
"`  c #BFD875",
"'  c #C0D976",
"]  c #C1D978",
"[  c #C1D979",
"{  c #C2DA7A",
"}  c #C3DA7C",
"|  c #C3DB7D",
" . c #C3DB7E",
".. c #C4DB7E",
"X. c #C5DC81",
"o. c #C6DC83",
"O. c #C6DC84",
"+. c #C7DD86",
"@. c #C9DE8B",
"#. c #CBDF8D",
"$. c #CEE194",
"%. c #CEE195",
"&. c #CFE298",
"*. c #D0E298",
"=. c #D0E29A",
"-. c #D1E39A",
";. c #D1E39B",
":. c #D1E39C",
">. c #D5E5A3",
",. c #D5E5A4",
"<. c #D6E6A6",
"1. c #D8E7A9",
"2. c #D8E7AA",
"3. c #D8E7AB",
"4. c #D9E8AC",
"5. c #D9E8AD",
"6. c #DAE8AE",
"7. c #DAE8AF",
"8. c #DBE9B0",
"9. c #DCE9B2",
"0. c #DDEAB6",
"q. c #DEEBB6",
"w. c #DEEBB7",
"e. c #DEEBB8",
"r. c #DFEBB9",
"t. c #DFECBA",
"y. c #E0ECBC",
"u. c #E1ECBD",
"i. c #E1EDBE",
"p. c #E1EDBF",
"a. c #E2EDC1",
"s. c #E2EEC1",
"d. c #E3EEC2",
"f. c #E4EFC4",
"g. c #E5EFC5",
"h. c #E5EFC6",
"j. c #E6F0C8",
"k. c #E6F0C9",
"l. c #E7F0CA",
"z. c #E7F0CB",
"x. c #E7F1CC",
"c. c #E8F1CC",
"v. c #E9F2CF",
"b. c #EAF2D1",
"n. c #EAF2D2",
"m. c #EBF3D3",
"M. c #EBF3D4",
"N. c #ECF3D5",
"B. c #ECF3D6",
"V. c #EDF4D8",
"C. c #EEF5DA",
"Z. c #EEF5DB",
"A. c #EFF5DC",
"S. c #EFF5DD",
"D. c #F0F6DD",
"F. c #F0F6DE",
"G. c #F0F6DF",
"H. c #F1F7E1",
"J. c #F1F7E2",
"K. c #F2F7E2",
"L. c #F2F7E3",
"P. c #F3F8E4",
"I. c #F3F8E5",
"U. c #F3F8E6",
"Y. c #F4F8E6",
"T. c #F4F8E7",
"R. c #F5F9E9",
"E. c #F6F9EB",
"W. c #F6FAEC",
"Q. c #F7FAED",
"!. c #F7FAEE",
"~. c #F7FAEF",
"^. c #F8FBF0",
"/. c #F8FBF1",
"(. c #F9FBF1",
"). c #F9FBF2",
"_. c #F9FBF3",
"`. c #FAFCF3",
"'. c #FAFCF4",
"]. c #FAFCF5",
"[. c #FBFCF5",
"{. c #FBFDF6",
"}. c #FBFDF7",
"|. c #FCFDF8",
" X c #FCFDF9",
".X c #FDFEFA",
"XX c #FDFEFB",
"oX c #FDFEFC",
"OX c #FEFEFC",
"+X c #FEFEFD",
"@X c #FEFFFD",
"#X c #FEFFFE",
"$X c #FFFFFE",
"%X c gray100",
"&X c None",
/* pixels */
"&X&X&X&X&X&X&X&X&X&X&X&X&X&X&X&X&X&X&X&X&X&X&X&X&X&X$ $ $ $ $ $ $ $ $ $ $ $ &X&X&X&X&X&X&X&X&X&X&X&X&X&X&X&X&X&X&X&X&X&X&X&X&X&X",
"&X&X&X&X&X&X&X&X&X&X&X&X&X&X&X&X&X&X&X&X&X&X$ $ $ $ $ $ $ $ $ $ $ $ $ $ $ $ $ $ $ &X&X&X&X&X&X&X&X&X&X&X&X&X&X&X&X&X&X&X&X&X&X&X",
"&X&X&X&X&X&X&X&X&X&X&X&X&X&X&X&X&X&X&X$ $ $ $ $ $ $ $ $ $ $ $ $ $ $ $ $ $ $ $ $ $ $ $ $ &X&X&X&X&X&X&X&X&X&X&X&X&X&X&X&X&X&X&X&X",
"&X&X&X&X&X&X&X&X&X&X&X&X&X&X&X&X&X$ $ $ $ $ $ $ $ $ $ $ $ $ $ $ $ $ $ $ $ $ $ $ $ $ $ $ $ $ &X&X&X&X&X&X&X&X&X&X&X&X&X&X&X&X&X&X",
"&X&X&X&X&X&X&X&X&X&X&X&X&X&X&X$ $ $ $ $ $ $ $ $ $ $ $ $ $ $ $ $ $ $ $ $ $ $ $ $ $ $ $ $ $ $ $ $ &X&X&X&X&X&X&X&X&X&X&X&X&X&X&X&X",
"&X&X&X&X&X&X&X&X&X&X&X&X&X&X$ $ $ $ $ $ $ $ $ $ $ $ $ $ $ $ $ $ $ $ $ $ $ $ $ $ $ $ $ $ $ $ $ $ $ $ &X&X&X&X&X&X&X&X&X&X&X&X&X&X",
"&X&X&X&X&X&X&X&X&X&X&X&X$ $ $ $ $ $ $ $ $ $ $ $ $ $ $ $ O + . . . . O $ $ $ $ $ $ $ $ $ $ $ $ $ $ $ $ &X&X&X&X&X&X&X&X&X&X&X&X&X",
"&X&X&X&X&X&X&X&X&X&X&X$ $ $ $ $ $ $ $ $ $ $ $ O O O $ 7 h D K P U H Z s 3 $ . O $ $ $ $ $ $ $ $ $ $ $ $ &X&X&X&X&X&X&X&X&X&X&X&X",
"&X&X&X&X&X&X&X&X&X&X$ $ $ $ $ $ $ $ $ $ $ @ . 1 Z } 4.m.T.^. X X X'.).L.l.,.) c - O O O $ $ $ $ $ $ $ $ $ $ &X&X&X&X&X&X&X&X&X&X",
"&X&X&X&X&X&X&X&X&X$ $ $ $ $ $ $ $ $ $ $ O r ' d.~.%X%X%X%X%X%X%X%X%X%X%X%X%X%XI.9.Q 7 O $ @ $ $ $ $ $ $ $ $ $ &X&X&X&X&X&X&X&X&X",
"&X&X&X&X&X&X&X&X$ $ $ $ $ $ $ $ $ $ . w o.V.%X%X%X%X%X%X%X%X%X%X%X%X%X%X%X%X%X%X%X Xj./ 2 O O % $ $ $ $ $ $ $ $ &X&X&X&X&X&X&X&X",
"&X&X&X&X&X&X&X$ $ $ $ $ $ $ $ $ O - U v. X%X%X%X%X%X%X%X%X%X%X%X%X%X%X%X%X%X%X%X%X%X%X|.r.D @ O $ $ $ $ $ $ $ $ &X&X&X&X&X&X&X&X",
"&X&X&X&X&X&X$ $ $ $ $ $ $ $ $ O 6 %.^.%X%X%X%X%X%X%X%X%X%X%X%X%X%X%X%X%X%X%X%X%X%X%X%X%X%XI.{ , @ @ $ $ $ $ $ $ $ &X&X&X&X&X&X&X",
"&X&X&X&X&X&X$ $ $ $ $ $ $ $ O f w.%X%X%X%X%X%X%X%X%X%X%X).D.m.j.v.N.T.'.%X%X%X%X%X%X%X%X%X%X'.-.7 O $ $ $ $ $ $ $ $ &X&X&X&X&X&X",
"&X&X&X&X&X$ $ $ $ $ $ $ $ O c j.%X%X%X%X%X%X%X%X%XS.1._ Z f 7 1 1 7 f G | w.R.%X%X%X%X%X%X%X%X%X4.9 O $ $ $ $ $ $ $ $ &X&X&X&X&X",
"&X&X&X&X$ $ $ $ $ $ $ $ O h j.%X%X%X%X%X%X%X Xv.{ f @ . + + $ $ $ $ O . . - c #.D.%X%X%X%X%X%X%X%X3.3 @ $ $ $ $ $ $ $ &X&X&X&X&X",
"&X&X&X&X$ $ $ $ $ $ $ @ w t.%X%X%X%X%X%X%XI.O.w O @ $ $ $ $ $ $ $ $ $ $ $ $ O O h :.^.%X%X%X%X%X%X%X*.- $ $ $ $ $ $ $ $ &X&X&X&X",
"&X&X&X$ $ $ $ $ $ $ $ - &.%X%X%X%X%X%X%Xf.D O O $ $ $ $ $ $ $ $ $ $ $ $ $ $ $ $ O - R V.%X%X%X%X%X%X'._ O $ $ $ $ $ $ $ &X&X&X&X",
"&X&X&X$ $ $ $ $ $ $ O Q '.%X%X%X%X%X%X4.r O @ - $ $ $ $ $ $ $ $ $ $ $ $ $ $ $ $ $ $ O B j.%X%X%X%X%X%XH.V O $ $ $ $ $ $ $ &X&X&X",
"&X&X$ $ $ $ $ $ $ O r m.%X%X%X%X%X%X4.6 O $ $ O $ $ $ $ $ $ $ $ $ $ $ $ $ $ $ $ $ $ % O c j.%X%X%X%X%X%X8., $ $ $ $ $ $ $ &X&X&X",
"&X&X$ $ $ $ $ $ @ @ @.%X%X%X%X%X%Xd.w O $ $ $ $ $ $ $ $ $ $ $ $ $ $ $ $ $ $ $ $ $ $ $ $ o Z A.%X%X%X%X%X'.R . $ $ $ $ $ $ $ &X&X",
"&X&X$ $ $ $ $ $ O h D.%X%X%X%X%XH.V @ $ $ $ $ $ $ $ $ $ $ $ $ $ $ $ $ $ $ $ $ $ $ $ $ $ $ O ! ).%X%X%X%X%Xu.1 $ $ $ $ $ $ $ &X&X",
"&X$ $ $ $ $ $ $ O o.%X%X%X%X%X X{ O $ $ $ $ $ $ $ $ $ $ $ $ $ $ $ $ $ $ $ $ $ $ $ $ $ $ $ $ - ,.%X%X%X%X%X'.P O $ $ $ $ $ $ $ &X",
"&X$ $ $ $ $ $ $ 7 j.%X%X%X%X%Xj.7 @ $ $ $ $ $ $ $ $ $ $ $ $ $ $ $ $ $ $ $ $ $ $ $ $ $ $ $ $ O c H.%X%X%X%X%X,.- $ $ $ $ $ $ $ &X",
"&X$ $ $ $ $ $ . H '.%X%X%X%X X/ O @ $ $ $ $ $ $ $ $ $ $ $ $ $ $ $ $ $ $ $ $ $ $ $ $ $ $ $ $ $ $ %.%X%X%X%X%XD.p @ $ $ $ $ $ $ &X",
"&X$ $ $ $ $ $ O #.%X%X%X%X%XV.w @ @ $ $ $ $ $ $ $ $ $ $ $ $ $ $ $ $ $ $ $ $ $ $ $ $ $ $ $ $ $ . D ~.%X%X%X%X XT . $ $ $ $ $ $ &X",
"$ $ $ $ $ $ $ , u.%X%X%X%X%X-.@ $ $ $ $ $ $ $ $ $ $ $ $ $ $ $ $ $ $ $ $ $ $ $ $ $ $ $ $ $ $ $ $ 3 d.%X%X%X%X%X$.O $ $ $ $ $ $ $ ",
"$ $ $ $ $ $ @ r D.%X%X%X%X XR . $ $ $ $ $ $ $ $ $ $ $ $ $ $ $ $ $ $ $ $ $ $ $ $ $ $ $ $ $ $ $ $ O +.!.R.~.R.~.3.- $ $ $ $ $ $ $ ",
"$ $ $ $ $ $ O Z ^.%X%X%X%XR.z O $ $ $ $ $ $ $ $ $ $ $ $ $ $ $ $ $ $ $ $ $ $ $ $ $ $ $ $ $ $ $ $ O 7 c c c c c f - $ $ $ $ $ $ $ ",
"$ $ $ $ $ $ . P  X%X%X%X%Xm.7 O $ $ $ $ $ $ $ $ $ $ $ $ $ $ $ $ $ $ $ $ $ $ $ $ $ $ $ $ $ $ $ $ - O O O O O O $ $ $ $ $ $ $ $ $ ",
"$ $ $ $ $ $ . / %X%X%X%X%Xd., - $ $ $ $ $ $ $ $ $ $ $ $ $ $ $ $ $ $ $ $ $ $ $ $ $ $ $ $ $ $ $ $ $ $ $ $ $ $ $ $ $ $ $ $ $ $ $ $ ",
"$ $ $ $ $ $ . ` %X%X%X%X%Xr.- @ $ $ $ $ $ $ $ $ $ $ $ $ $ $ $ $ $ $ $ $ $ $ $ $ $ $ $ $ $ $ $ $ $ $ $ $ $ $ $ $ $ $ $ $ $ $ $ $ ",
"$ $ $ $ $ $ . ` %X%X%X%X%Xr.- $ $ $ $ $ $ $ $ $ $ $ $ $ $ $ $ $ $ $ $ $ $ $ $ $ $ $ $ $ $ $ $ $ $ $ $ $ $ $ $ $ $ $ $ $ $ $ $ $ ",
"$ $ $ $ $ $ . / %X%X%X%X%Xd., $ $ $ $ $ $ $ $ $ $ $ $ $ $ $ $ $ $ $ $ $ @ @ + @ + $ + + + + + $ + + + + + $ + + $ $ $ $ $ $ $ $ ",
"$ $ $ $ $ $ . P |.%X%X%X%Xm.7 $ $ $ $ $ $ $ $ $ $ $ $ $ $ $ $ $ $ $ - w s s p p s p p s p p p p p p p p s p p p 1 $ $ $ $ $ $ $ ",
"$ $ $ $ $ $ O Z ^.%X%X%X%XR.z O $ $ $ $ $ $ $ $ $ $ $ $ $ $ $ $ $ $ 3 u.P.H.H.H.L.H.H.H.H.L.L.G.G.P.G.P.L.H.H.H.~ + $ $ $ $ $ $ ",
"$ $ $ $ $ $ $ r S.%X%X%X%X XE . $ $ $ $ $ $ $ $ $ $ $ $ $ $ $ $ $ @ 5 m.%X%X%X%X%X%X%X%X%X%X%X%X%X%X%X%X%X%X%X%X' . $ $ $ $ $ $ ",
"$ $ $ $ $ $ $ , u.%X%X%X%X%X-.@ $ $ $ $ $ $ $ $ $ $ $ $ $ $ $ $ $ @ 7 m.%X%X%X%X%X%X%X%X%X%X%X%X%X%X%X%X%X%X%X%X' . $ $ $ $ $ $ ",
"&X$ $ $ $ $ $ . #.%X%X%X%X%XN.w $ $ $ $ $ $ $ $ $ $ $ $ $ $ $ $ $ $ 7 m.%X%X%X%X%X%X%X%X%X%X%X%X%X%X%X%X%X%X%X%X' . $ $ $ $ $ $ ",
"&X$ $ $ $ $ $ O H '.%X%X%X%X X) . $ $ $ $ $ $ $ $ $ $ $ $ $ $ $ $ $ 5 m.%X%X%X%X%X%X%X%X%X%X%X%X%X%X%X%X%X%X%X%X' . $ $ $ $ $ $ ",
"&X$ $ $ $ $ $ $ 7 j.%X%X%X%X%Xf.7 @ $ $ $ $ $ $ $ $ $ $ $ $ $ $ $ + 5 f.!.!.!.!.!.~.!.!.~.R.!.'.%X%X%X%X%X%X%X%X' . $ $ $ $ $ $ ",
"&X$ $ $ $ $ $ $ . o.%X%X%X%X%X X} . $ $ $ $ $ $ $ $ $ $ $ $ $ $ $ $ $ l B B M M m c B c B c Z u.%X%X%X%X%X%X%X%X' . $ $ $ $ $ $ ",
"&X&X$ $ $ $ $ $ O h S.%X%X%X%X%XH.V @ @ $ $ $ $ $ $ $ $ $ $ $ $ $ $ $ $ o o o O O O . O O . ! ^.%X%X%X%X%X%X%X%X' . $ $ $ $ $ $ ",
"&X&X$ $ $ $ $ $ $ O @.%X%X%X%X%X%Xd.w @ $ $ $ $ $ $ $ $ $ $ $ $ $ $ $ $ $ $ $ $ $ $ $ $ O Z S.%X%X%X%X%X%X%X%X%X' . $ $ $ $ $ $ ",
"&X&X&X$ $ $ $ $ $ @ r m.%X%X%X%X%X%X4.9 O $ $ $ $ $ $ $ $ $ $ $ $ $ $ $ $ $ $ $ $ $ $ O c j.%X%X%X%X%X%X%X%X%X%X' . $ $ $ $ $ $ ",
"&X&X&X$ $ $ $ $ $ $ O ! '.%X%X%X%X%X%X4.w $ $ $ $ $ $ $ $ $ $ $ $ $ $ $ $ $ $ $ $ $ O Z z.%X%X%X%X%X%X%X%X%X%X%X' . $ $ $ $ $ $ ",
"&X&X&X$ $ $ $ $ $ $ - - -.%X%X%X%X%X%X%Xd.D . $ $ $ $ $ $ $ $ $ $ $ $ $ $ $ $ $ O - T V.%X%X%X%X%X%X%X%X%X%X%X%X' . $ $ $ $ $ $ ",
"&X&X&X&X$ $ $ $ O - O O 8 r.%X%X%X%X%X%X%XI.o.w . + $ $ $ $ $ $ $ $ $ $ $ $ o O h :.^.%X%X%X%X%X%X X|.%X%X%X%X%X' . $ $ $ $ $ $ ",
"&X&X&X&X&X$ $ $ $ $ $ $ O h j.%X%X%X%X%X%X%X Xv.{ s $ . O @ $ $ $ O O O . , c @.D.%X%X%X%X%X%X%X%X4.j.%X%X%X%X%X' . $ $ $ $ $ $ ",
"&X&X&X&X&X$ $ $ $ $ $ $ $ O c j.%X%X%X%X%X%X%X%X%XD.3._ D s 5 3 3 9 s G | w.R.%X%X%X%X%X%X%X%X%X3.w w.%X%X%X%X%X' . $ $ $ $ $ $ ",
"&X&X&X&X&X&X$ $ $ $ $ $ $ $ O f r.%X%X%X%X%X%X%X%X%X%X%X^.H.N.j.v.m.I.'.%X%X%X%X%X%X%X%X%X%X'.:.3 - r.%X%X%X%X%X' . $ $ $ $ $ $ ",
"&X&X&X&X&X&X&X$ $ $ $ $ $ $ $ O 9 %.^.%X%X%X%X%X%X%X%X%X%X%X%X%X%X%X%X%X%X%X%X%X%X%X%X%X%XI.{ - $ - r.%X%X%X%X%X' . $ $ $ $ $ $ ",
"&X&X&X&X&X&X&X$ $ $ $ $ $ $ $ $ @ - U l.%X%X%X%X%X%X%X%X%X%X%X%X%X%X%X%X%X%X%X%X%X%X%X|.q.D $ $ $ - y.%X%X%X%X%X' . $ $ $ $ $ $ ",
"&X&X&X&X&X&X&X&X$ $ $ $ $ $ $ $ $ $ $ w X.V. X%X%X%X%X%X%X%X%X%X%X%X%X%X%X%X%X%X%X Xj.~ 1 . $ $ $ - w.%X%X%X%X%X' . $ $ $ $ $ $ ",
"&X&X&X&X&X&X&X&X&X$ $ $ $ $ $ $ $ $ $ @ O r ' f.~.%X%X%X%X%X%X%X%X%X%X%X%X%X%XT.9.E 7 + $ $ $ $ $ ; y.%X%X%X%X%X' . $ $ $ $ $ $ ",
"&X&X&X&X&X&X&X&X&X&X$ $ $ $ $ $ $ $ $ $ $ O o 1 Z } 4.m.Y.^. X X X X^.H.l.>.) c - . $ $ $ $ $ $ $ - w.%X X X X%X_ . $ $ $ $ $ $ ",
"&X&X&X&X&X&X&X&X&X&X&X$ $ $ $ $ $ $ $ $ $ $ $ $ O . $ 5 h D K U U H Z s 3 $ . O $ $ $ $ $ $ $ $ $ $ D U Y U Y U s @ $ $ $ $ $ $ ",
"&X&X&X&X&X&X&X&X&X&X&X&X&X$ $ $ $ $ $ $ $ $ $ $ $ $ $ $ $ O . . . O . $ $ $ $ $ $ $ $ $ $ $ $ $ $ $ + . + . + . @ $ $ $ $ $ $ $ ",
"&X&X&X&X&X&X&X&X&X&X&X&X&X&X$ $ $ $ $ $ $ $ $ $ $ $ $ $ $ $ $ $ $ $ $ $ $ $ $ $ $ $ $ $ $ $ $ $ $ $ $ $ $ $ $ $ $ $ $ $ $ $ $ $ ",
"&X&X&X&X&X&X&X&X&X&X&X&X&X&X&X&X$ $ $ $ $ $ $ $ $ $ $ $ $ $ $ $ $ $ $ $ $ $ $ $ $ $ $ $ $ $ $ $ $ $ $ $ $ $ $ $ $ $ $ $ $ $ $ $ ",
"&X&X&X&X&X&X&X&X&X&X&X&X&X&X&X&X&X$ $ $ $ $ $ $ $ $ $ $ $ $ $ $ $ $ $ $ $ $ $ $ $ $ $ $ $ $ $ $ $ $ $ $ $ $ $ $ $ $ $ $ $ $ $ $ ",
"&X&X&X&X&X&X&X&X&X&X&X&X&X&X&X&X&X&X&X&X$ $ $ $ $ $ $ $ $ $ $ $ $ $ $ $ $ $ $ $ $ $ $ $ $ $ $ $ $ $ $ $ $ $ $ $ $ $ $ $ $ $ $ $ ",
"&X&X&X&X&X&X&X&X&X&X&X&X&X&X&X&X&X&X&X&X&X&X$ $ $ $ $ $ $ $ $ $ $ $ $ $ $ $ $ $ $ $ $ $ $ $ $ $ $ $ $ $ $ $ $ $ $ $ $ $ $ $ $ $ ",
"&X&X&X&X&X&X&X&X&X&X&X&X&X&X&X&X&X&X&X&X&X&X&X&X&X&X$ $ $ $ $ $ $ $ $ $ $ $ $ $ $ $ $ $ $ $ $ $ $ $ $ $ $ $ $ $ $ $ $ $ $ $ $ $ "
};
